HIERARCHY
ROOT Hips
{
 OFFSET 0.000000 0.000000 0.000000
 CHANNELS 6 Xposition Yposition Zposition Yrotation Xrotation Zrotation
 JOINT Chest
 {
  OFFSET 0.000000 9.857222 0.000240
  CHANNELS 3 Yrotation Xrotation Zrotation
  JOINT Chest2
  {
   OFFSET 0.000000 10.876940 -0.000436
   CHANNELS 3 Yrotation Xrotation Zrotation
   JOINT Chest3
   {
    OFFSET 0.000000 9.827798 0.000000
    CHANNELS 3 Yrotation Xrotation Zrotation
    JOINT Chest4
    {
     OFFSET 0.000000 9.827798 0.000000
     CHANNELS 3 Yrotation Xrotation Zrotation
     JOINT Neck
     {
      OFFSET 0.000000 13.831992 0.000000
      CHANNELS 3 Yrotation Xrotation Zrotation
      JOINT Head
      {
       OFFSET 0.000000 9.147643 -0.001036
       CHANNELS 3 Yrotation Xrotation Zrotation
       End Site
       {
        OFFSET 0.000000 17.515799 -0.000541
       }
      }
     }
     JOINT RightCollar
     {
      OFFSET -3.001579 7.717577 0.000000
      CHANNELS 3 Yrotation Xrotation Zrotation
      JOINT RightShoulder
      {
       OFFSET -14.002642 0.000000 0.000000
       CHANNELS 3 Yrotation Xrotation Zrotation
       JOINT RightElbow
       {
        OFFSET -30.053852 0.000000 0.000000
        CHANNELS 3 Yrotation Xrotation Zrotation
        JOINT RightWrist
        {
         OFFSET -24.564923 0.000000 -0.000000
         CHANNELS 3 Yrotation Xrotation Zrotation
         End Site
         {
          OFFSET -18.334355 0.000000 0.000000
         }
        }
       }
      }
     }
     JOINT LeftCollar
     {
      OFFSET 3.001579 7.717577 0.000000
      CHANNELS 3 Yrotation Xrotation Zrotation
      JOINT LeftShoulder
      {
       OFFSET 14.002642 0.000000 0.000000
       CHANNELS 3 Yrotation Xrotation Zrotation
       JOINT LeftElbow
       {
        OFFSET 30.053852 0.000000 0.000000
        CHANNELS 3 Yrotation Xrotation Zrotation
        JOINT LeftWrist
        {
         OFFSET 24.564923 0.000000 -0.000000
         CHANNELS 3 Yrotation Xrotation Zrotation
         End Site
         {
          OFFSET 18.334355 0.000000 0.000000
         }
        }
       }
      }
     }
    }
   }
  }
 }
 JOINT RightHip
 {
  OFFSET -8.003235 -0.001175 -0.000120
  CHANNELS 3 Yrotation Xrotation Zrotation
  JOINT RightKnee
  {
   OFFSET 0.000000 -41.759727 0.000113
   CHANNELS 3 Yrotation Xrotation Zrotation
   JOINT RightAnkle
   {
    OFFSET 0.000000 -40.728748 0.000159
    CHANNELS 3 Yrotation Xrotation Zrotation
    JOINT RightToe
    {
     OFFSET 0.000000 -6.515296 14.732841
     CHANNELS 3 Yrotation Xrotation Zrotation
     End Site
     {
      OFFSET 0.000000 -1.502839 6.412115
     }
    }
   }
  }
 }
 JOINT LeftHip
 {
  OFFSET 8.003235 -0.001175 -0.000120
  CHANNELS 3 Yrotation Xrotation Zrotation
  JOINT LeftKnee
  {
   OFFSET 0.000000 -41.759727 0.000113
   CHANNELS 3 Yrotation Xrotation Zrotation
   JOINT LeftAnkle
   {
    OFFSET 0.000000 -40.728748 0.000159
    CHANNELS 3 Yrotation Xrotation Zrotation
    JOINT LeftToe
    {
     OFFSET 0.000000 -6.515296 14.732841
     CHANNELS 3 Yrotation Xrotation Zrotation
     End Site
     {
      OFFSET 0.000000 -1.502839 6.412115
     }
    }
   }
  }
 }
}
MOTION
Frames: 13
Frame Time: 0.016667
8.694339 90.488959 14.447095 -34.295275 -17.981646 -0.142530 1.634844 8.567976 0.179269 0.732761 3.791591 0.054244 0.732761 3.791591 0.054244 0.549033 2.843763 0.036116 -3.217726 20.455111 1.432621 -6.283568 1.941985 3.569454 7.833936 2.383166 10.479971 45.736326 -10.042939 85.269839 6.839150 3.238290 0.107710 -7.997763 2.985462 -4.728599 -23.141539 4.274044 -12.148251 -31.947402 9.250757 -65.848341 -23.623736 -48.099983 0.126327 3.053619 5.265145 4.084612 4.718937 27.425416 -0.300979 -2.499434 -5.607600 4.016381 -0.351269 -3.475213 -1.930366 -0.039328 0.040434 -0.055147 -2.354151 19.549496 -0.587591 0.653588 1.468183 -0.381601 1.973798 -3.822602 0.299184 0.018043 0.019080 0.028565
8.662605 90.485408 14.457291 -34.291772 -17.987874 -0.125831 1.605103 8.594141 0.169991 0.732131 3.791382 0.057878 0.732131 3.791382 0.057878 0.548538 2.843611 0.038845 -3.205337 20.439444 1.424178 -6.259216 1.911661 3.551281 7.841708 2.369953 10.478469 45.711704 -9.998934 85.281923 6.836125 3.219109 0.105771 -7.999775 2.967259 -4.721546 -23.134724 4.260815 -12.151045 -31.948753 9.239701 -65.832010 -23.615085 -48.043027 0.099773 3.065525 5.266720 4.085490 4.424610 27.492008 -0.423641 -2.339503 -5.660693 4.006813 -0.319916 -3.484766 -1.921081 -0.049236 0.052283 -0.057336 -2.410410 19.569042 -0.578327 0.664599 1.474315 -0.439726 1.989521 -3.838998 0.305117 0.022786 0.017238 0.030855
8.639126 90.484101 14.473432 -34.284901 -18.013767 -0.102279 1.574520 8.628491 0.157441 0.730013 3.795041 0.061806 0.730013 3.795041 0.061806 0.546925 2.846359 0.041799 -3.187350 20.423459 1.417725 -6.225286 1.880558 3.535067 7.845917 2.371621 10.475654 45.693335 -9.965342 85.274419 6.814566 3.215551 0.113063 -8.010013 2.951402 -4.729365 -23.130958 4.254436 -12.163255 -31.939152 9.219726 -65.811652 -23.591961 -47.980506 0.065656 3.069946 5.273732 4.083602 4.302653 27.549444 -0.475742 -2.316242 -5.680027 3.992195 -0.297729 -3.511972 -1.903002 -0.068941 0.077746 -0.063547 -2.496888 19.602252 -0.639443 0.714344 1.491095 -0.413965 2.003690 -3.866211 0.284775 0.017583 0.021145 0.028148
8.640578 90.481815 14.477639 -34.310627 -17.966864 -0.093807 1.589213 8.596182 0.175998 0.721311 3.800607 0.064071 0.721311 3.800607 0.064071 0.540386 2.850535 0.043544 -3.152539 20.403758 1.411391 -6.160945 1.841617 3.514249 7.850014 2.355129 10.465967 45.698788 -9.931242 85.268290 6.776608 3.200234 0.118106 -8.026688 2.943875 -4.753611 -23.122300 4.230896 -12.173787 -31.929988 9.204780 -65.810120 -23.578465 -47.894279 0.038420 3.073622 5.258691 4.093376 4.432695 27.485299 -0.453143 -2.497082 -5.644470 4.026140 -0.278007 -3.493294 -1.896202 -0.068379 0.053433 -0.062052 -2.512818 19.543410 -0.682808 0.721484 1.518321 -0.359735 2.021488 -3.873094 0.262834 0.009368 0.014297 0.022246
8.650676 90.482353 14.489423 -34.262372 -17.970667 -0.061074 1.537947 8.622972 0.158131 0.707697 3.804966 0.064618 0.707697 3.804966 0.064618 0.530175 2.853804 0.044034 -3.097393 20.385049 1.405903 -6.059807 1.803442 3.488826 7.847447 2.318391 10.454286 45.731738 -9.889937 85.273086 6.722812 3.160597 0.089102 -8.037898 2.946838 -4.754742 -23.115321 4.200016 -12.182829 -31.908750 9.201353 -65.812608 -23.580841 -47.889384 0.023308 3.073818 5.274795 4.114002 4.330890 27.501980 -0.540208 -2.525750 -5.642996 4.050920 -0.231654 -3.521263 -1.873026 -0.107154 0.081964 -0.076794 -2.650582 19.518471 -0.761659 0.740060 1.564770 -0.375131 2.014198 -3.893930 0.279883 0.015333 0.014755 0.021801
8.653840 90.483815 14.499841 -34.188379 -18.008509 -0.046189 1.468528 8.672944 0.148953 0.693581 3.811932 0.064654 0.693581 3.811932 0.064654 0.519590 2.859027 0.044141 -3.029963 20.368032 1.405098 -5.937631 1.768052 3.468127 7.838972 2.288669 10.452760 45.757263 -9.856282 85.280907 6.673355 3.115199 0.040860 -8.045847 2.964372 -4.755682 -23.114525 4.186667 -12.186404 -31.893980 9.192461 -65.819568 -23.584745 -47.899542 0.023537 3.073753 5.273423 4.126334 4.082066 27.580232 -0.646093 -2.380902 -5.675756 4.036793 -0.269970 -3.532881 -1.869656 -0.088315 0.092222 -0.063737 -2.779033 19.534920 -0.816976 0.748859 1.595211 -0.386816 2.049631 -3.900096 0.288494 0.017142 0.009380 0.019370
8.643754 90.485807 14.499655 -34.121008 -18.039497 -0.034916 1.407193 8.718563 0.141917 0.682399 3.818102 0.063454 0.682399 3.818102 0.063454 0.511213 2.863652 0.043304 -2.958899 20.350870 1.412422 -5.811267 1.732740 3.461098 7.827154 2.266184 10.457918 45.743333 -9.829972 85.267598 6.650916 3.104812 0.034132 -8.054710 2.971798 -4.781306 -23.120961 4.195927 -12.177296 -31.917816 9.173766 -65.834265 -23.595123 -47.941267 0.047382 3.075704 5.276595 4.121877 3.922605 27.643647 -0.674590 -2.239196 -5.705060 3.970493 -0.338466 -3.546161 -1.860975 -0.067534 0.103445 -0.049035 -2.820204 19.550691 -0.808382 0.710722 1.617971 -0.437425 2.047568 -3.905630 0.303519 0.022136 0.005382 0.019956
8.628225 90.487268 14.473593 -34.050320 -18.046725 0.005380 1.349727 8.747620 0.106004 0.671788 3.821080 0.064074 0.671788 3.821080 0.064074 0.503253 2.865885 0.043832 -2.898593 20.334769 1.421066 -5.704813 1.700097 3.459598 7.815199 2.242500 10.459997 45.689525 -9.788321 85.228083 6.655927 3.122207 0.063558 -8.054569 2.976305 -4.805820 -23.131293 4.197170 -12.168906 -31.973101 9.179793 -65.859492 -23.627318 -48.008166 0.076862 3.071186 5.269305 4.092304 3.989940 27.639997 -0.653990 -2.273310 -5.690153 3.927623 -0.341598 -3.573503 -1.818799 -0.138980 0.133081 -0.076090 -2.990961 19.518133 -0.793207 0.768478 1.660246 -0.606545 2.068723 -3.913465 0.356084 0.040710 0.002569 0.025414
8.625021 90.485851 14.432657 -33.984165 -17.991742 0.050897 1.311335 8.738070 0.072206 0.660288 3.815345 0.066343 0.660288 3.815345 0.066343 0.494618 2.861584 0.045612 -2.858788 20.318863 1.423205 -5.633694 1.668561 3.452370 7.801089 2.216313 10.450211 45.592630 -9.754214 85.201891 6.668771 3.183699 0.088507 -8.042733 2.972429 -4.798753 -23.137638 4.184856 -12.162784 -32.035858 9.204011 -65.889342 -23.679516 -48.090208 0.101891 3.063771 5.259164 4.061014 4.127039 27.559714 -0.627766 -2.373314 -5.658148 3.904501 -0.321442 -3.601115 -1.777316 -0.219202 0.161502 -0.107537 -3.229400 19.402153 -0.851013 0.880851 1.714658 -0.687622 2.070927 -3.919602 0.381430 0.046796 0.004740 0.022422
8.639857 90.484040 14.415424 -33.895316 -17.981404 0.082256 1.259009 8.765053 0.043050 0.650376 3.811872 0.070321 0.650376 3.811872 0.070321 0.487162 2.858983 0.048660 -2.839756 20.301991 1.421647 -5.599300 1.636140 3.444674 7.792399 2.202066 10.447058 45.482474 -9.730025 85.179200 6.689497 3.262721 0.124469 -8.029559 2.954200 -4.789554 -23.138334 4.176564 -12.157336 -32.067407 9.236215 -65.900202 -23.741998 -48.169734 0.112419 3.064687 5.265806 4.030580 4.073672 27.558791 -0.680376 -2.354989 -5.669028 3.895758 -0.304675 -3.619253 -1.759408 -0.247428 0.186735 -0.114298 -3.337009 19.358205 -0.929449 0.875018 1.725194 -0.654696 2.091721 -3.912562 0.377907 0.035495 0.011506 0.010450
8.667848 90.483523 14.410513 -33.836915 -17.979059 0.080738 1.242657 8.781031 0.051803 0.643909 3.815350 0.077506 0.643909 3.815350 0.077506 0.482269 2.861598 0.054083 -2.841148 20.286224 1.415481 -5.600641 1.606598 3.434660 7.790291 2.197825 10.441495 45.418337 -9.705172 85.157040 6.713279 3.306554 0.154429 -8.010663 2.929876 -4.791167 -23.139775 4.174382 -12.153072 -32.059717 9.246157 -65.899544 -23.787386 -48.163057 0.102600 3.070776 5.256847 4.015233 4.102130 27.551870 -0.678341 -2.386547 -5.669103 3.905022 -0.319226 -3.619402 -1.767761 -0.238063 0.193254 -0.101949 -3.304315 19.347570 -0.953232 0.846266 1.703005 -0.604270 2.082351 -3.897640 0.380319 0.024504 0.021209 -0.001672
8.689126 90.484703 14.400769 -33.805995 -17.968584 0.060247 1.251873 8.784363 0.082134 0.642036 3.820556 0.085641 0.642036 3.820556 0.085641 0.480812 2.865511 0.060188 -2.856248 20.272935 1.409620 -5.626918 1.582409 3.429191 7.790965 2.187869 10.439089 45.423219 -9.668776 85.160274 6.726114 3.301636 0.145197 -7.999393 2.914484 -4.784006 -23.139827 4.170497 -12.147354 -32.045816 9.240410 -65.908375 -23.816695 -48.140545 0.103678 3.078559 5.265030 4.008048 4.185846 27.532559 -0.619106 -2.415119 -5.675432 3.889045 -0.356992 -3.602105 -1.781328 -0.218881 0.187391 -0.082867 -3.252386 19.337928 -0.905766 0.869855 1.674368 -0.628873 2.044287 -3.879895 0.404638 0.027774 0.027071 -0.006052
8.697928 90.486467 14.394745 -33.774793 -17.963994 0.040110 1.254420 8.799251 0.105910 0.644053 3.823246 0.093396 0.644053 3.823246 0.093396 0.482275 2.867537 0.065987 -2.877186 20.263441 1.407625 -5.664830 1.565804 3.432326 7.793531 2.176753 10.442213 45.491528 -9.629968 85.176455 6.722982 3.256247 0.117328 -7.996898 2.910312 -4.784857 -23.137056 4.161735 -12.139569 -32.029955 9.224274 -65.928484 -23.839720 -48.107532 0.128339 3.084967 5.261201 3.998230 4.225213 27.527395 -0.567584 -2.387641 -5.690775 3.859448 -0.414629 -3.592721 -1.798641 -0.197472 0.186328 -0.062786 -3.143269 19.348329 -0.828607 0.831484 1.631691 -0.666609 2.037012 -3.858132 0.427395 0.031523 0.029711 -0.008072
